<?xml version="1.0" standalone="no"?>
<!DOCTYPE svg PUBLIC "-//W3C//DTD SVG 20010904//EN"
 "http://www.w3.org/TR/2001/REC-SVG-20010904/DTD/svg10.dtd">
<svg version="1.0" xmlns="http://www.w3.org/2000/svg"
 width="500.000000pt" height="500.000000pt" viewBox="0 0 500.000000 500.000000"
 preserveAspectRatio="xMidYMid meet">

<g transform="translate(0.000000,500.000000) scale(0.100000,-0.100000)"
fill="#000000" stroke="none">
<path d="M1454 3045 c-14 -21 -15 -31 -6 -50 7 -14 18 -25 27 -25 21 0 21
-102 0 -120 -34 -28 -7 -68 36 -55 23 8 26 53 4 61 -10 4 -15 21 -15 54 0 40
4 50 25 64 30 20 33 56 7 79 -27 24 -59 21 -78 -8z"/>
<path d="M1162 2968 c-16 -16 -15 -63 1 -75 28 -22 47 -22 76 2 23 20 40 25
85 25 53 0 56 -1 56 -26 0 -14 -7 -32 -15 -40 -23 -24 -19 -53 9 -60 14 -3 30
-3 35 1 16 9 13 55 -4 61 -9 4 -15 19 -15 40 l0 34 -60 0 c-52 0 -63 4 -82 25
-23 27 -66 33 -86 13z"/>
<path d="M1802 2858 c-7 -7 -12 -25 -12 -40 0 -27 1 -28 55 -28 63 0 71 15 30
55 -26 27 -54 32 -73 13z"/>
<path d="M992 2848 c-24 -30 -18 -72 13 -86 21 -10 25 -18 25 -57 l0 -45 59 0
c44 0 60 -4 65 -16 3 -9 15 -14 28 -12 18 2 23 9 23 33 0 24 -5 31 -23 33 -13
2 -25 -3 -28 -12 -5 -12 -20 -16 -60 -16 l-54 0 0 43 c0 31 5 45 20 55 24 15
26 54 4 76 -19 19 -58 21 -72 4z"/>
<path d="M1255 2749 c-12 -19 5 -23 22 -6 16 16 16 17 1 17 -9 0 -20 -5 -23
-11z"/>
<path d="M1371 2610 c-47 -11 -63 -31 -68 -87 -8 -83 46 -123 146 -107 35 6
41 10 41 30 0 23 -3 24 -40 18 -21 -4 -51 -4 -65 0 -21 5 -25 12 -25 45 0 52
18 65 80 57 46 -6 50 -5 50 14 0 11 -6 22 -12 24 -33 10 -76 12 -107 6z"/>
<path d="M1593 2613 l-43 -4 0 -94 0 -94 54 -6 c92 -12 146 11 146 60 0 13 -7
28 -16 33 -11 6 -13 11 -5 16 15 10 14 61 -2 74 -16 14 -79 21 -134 15z m91
-49 c28 -11 6 -24 -40 -24 -41 0 -53 7 -37 23 8 9 56 9 77 1z m11 -89 c0 -11
-59 -19 -82 -11 -8 3 -11 11 -8 16 8 14 90 9 90 -5z"/>
<path d="M1883 2609 c-42 -12 -63 -44 -63 -95 0 -79 71 -122 155 -94 45 15 65
44 65 95 0 52 -21 82 -68 95 -43 11 -46 11 -89 -1z m87 -59 c38 -38 15 -90
-40 -90 -35 0 -60 23 -60 55 0 51 62 73 100 35z"/>
<path d="M2438 2613 c-62 -10 -91 -111 -48 -166 38 -48 150 -44 185 6 24 35
19 104 -10 132 -13 14 -32 25 -42 25 -10 0 -27 2 -38 4 -11 2 -32 1 -47 -1z
m82 -63 c38 -38 15 -90 -40 -90 -35 0 -60 23 -60 55 0 51 62 73 100 35z"/>
<path d="M998 2599 c-26 -15 -24 -75 3 -89 28 -15 66 -5 74 20 5 16 16 20 58
22 l52 2 -49 3 c-37 3 -54 10 -68 29 -21 26 -42 30 -70 13z"/>
<path d="M2110 2516 l0 -95 55 -6 c93 -12 135 7 135 61 0 48 -22 64 -86 64
-30 0 -54 5 -54 10 0 6 28 10 65 10 63 0 65 1 65 25 0 25 -1 25 -90 25 l-90 0
0 -94z m145 -41 c0 -11 -59 -19 -82 -11 -8 3 -11 11 -8 16 8 14 90 9 90 -5z"/>
<path d="M2686 2588 c-3 -13 -6 -44 -6 -70 0 -36 -4 -48 -15 -48 -11 0 -15
-12 -15 -50 0 -27 3 -50 6 -50 16 0 44 23 44 35 0 12 15 15 70 15 63 0 70 -2
70 -20 0 -15 7 -20 25 -20 23 0 25 4 25 45 0 33 -4 45 -15 45 -12 0 -15 14
-15 70 l0 70 -84 0 c-78 0 -84 -1 -90 -22z m124 -73 l0 -45 -40 0 c-38 0 -40
2 -40 29 0 49 9 61 46 61 34 0 34 -1 34 -45z"/>
<path d="M2975 2523 c-22 -48 -41 -90 -43 -95 -8 -18 48 -7 58 12 8 15 21 20
55 20 35 0 45 -4 50 -20 6 -20 55 -30 55 -11 0 4 -18 47 -40 95 -37 77 -44 86
-68 86 -25 0 -32 -8 -67 -87z m85 -10 c0 -7 -9 -13 -20 -13 -23 0 -24 4 -9 32
9 17 13 18 20 7 5 -8 9 -20 9 -26z"/>
<path d="M940 2410 c-4 -35 -10 -47 -27 -55 -32 -14 -35 -60 -5 -82 26 -21 60
-15 78 12 15 23 15 27 0 50 -9 14 -21 25 -26 25 -5 0 -10 21 -12 48 l-4 47 -4
-45z"/>
<path d="M1037 2372 c-23 -25 -22 -69 2 -82 31 -16 50 -12 75 15 21 22 25 23
36 10 13 -16 46 -20 54 -7 3 5 -6 21 -19 38 -20 25 -24 27 -30 12 -9 -22 -35
-24 -35 -3 0 15 -29 35 -53 35 -8 0 -21 -8 -30 -18z"/>
<path d="M1250 2260 c0 -12 28 -25 36 -17 3 3 -4 10 -15 17 -15 7 -21 7 -21 0z"/>
<path d="M1335 2189 c-4 -13 -1 -27 9 -38 24 -26 21 -103 -4 -119 -14 -8 -20
-23 -20 -46 0 -28 5 -36 30 -46 24 -10 33 -10 46 0 40 34 37 81 -6 95 -28 9
-27 76 2 115 17 24 19 32 8 45 -18 22 -57 19 -65 -6z"/>
<path d="M1445 2189 c-10 -31 21 -62 46 -46 25 15 32 36 18 53 -18 22 -57 17
-64 -7z"/>
<path d="M1652 2169 c-2 -33 -16 -50 -38 -48 -14 1 -22 -26 -11 -33 9 -6 9 -8
-1 -8 -10 0 -10 -3 1 -15 9 -8 17 -19 19 -25 1 -5 17 -12 35 -16 26 -5 34 -2
48 20 21 32 9 70 -24 81 -14 4 -21 17 -24 43 l-4 37 -1 -36z"/>
<path d="M1503 2073 c9 -2 23 -2 30 0 6 3 -1 5 -18 5 -16 0 -22 -2 -12 -5z"/>
</g>
</svg>
